<svg width="22" height="9" viewBox="0 0 22 9" fill="none" xmlns="http://www.w3.org/2000/svg">
<g opacity="0.5">
<path d="M1.19408 4.71019L9.99934 8.77415C10.1395 8.83782 10.3068 8.79989 10.4044 8.67933C10.5026 8.55876 10.506 8.3874 10.4125 8.26345L7.51693 4.40268L10.4125 0.541916C10.506 0.417965 10.5026 0.245923 10.4051 0.126037C10.3394 0.0440798 10.2411 5.34058e-05 10.1416 5.34058e-05C10.0935 5.34058e-05 10.0454 0.0102129 10 0.0312099L1.19476 4.09517C1.07419 4.15072 0.997658 4.2706 0.997658 4.40268C0.997658 4.53476 1.0742 4.65465 1.19408 4.71019Z" fill="#C9A96F" stroke="#C09B57"/>
<line x1="21.1816" y1="4.65173" x2="7.18164" y2="4.65173" stroke="#C09B57" stroke-width="1.5"/>
</g>
</svg>
