<svg width="21" height="9" viewBox="0 0 21 9" fill="none" xmlns="http://www.w3.org/2000/svg">
<path d="M9.00126 8.77415L0.196005 4.71019C0.0761185 4.65465 -0.000419617 4.53476 -0.000419617 4.40268C-0.000419617 4.2706 0.0761175 4.15072 0.196682 4.09517L9.00194 0.0312099C9.04732 0.0102129 9.09541 5.34058e-05 9.1435 5.34058e-05C9.24307 5.34058e-05 9.34128 0.0440798 9.40698 0.126037C9.50452 0.245923 9.5079 0.417965 9.41443 0.541916L6.51886 4.40268L9.41443 8.26345C9.5079 8.3874 9.50452 8.55876 9.4063 8.67933C9.30877 8.79989 9.14147 8.83782 9.00126 8.77415ZM9.00126 8.77415L9.14224 8.46871L9.14302 8.467L9.14325 8.46652L9.14374 8.46544L9.21079 8.32017L9.208 8.31889M9.00126 8.77415L9.13878 8.47131L9.13956 8.4696L9.14158 8.46516L9.14207 8.46408L9.208 8.31889M9.208 8.31889C9.14456 8.29009 9.0667 8.30534 9.01865 8.36354C9.01847 8.36376 9.0183 8.36397 9.01812 8.36418L9.01758 8.36485C8.97219 8.42178 8.97004 8.50359 9.01443 8.56345C9.01469 8.5638 9.01496 8.56415 9.01522 8.56449L9.01443 8.56345L9.01443 8.56345L8.63143 8.05277M9.208 8.31889L8.63143 8.05277M8.63143 8.05277L6.11886 4.70268L5.89386 4.40268L6.11886 4.10268L8.63107 0.753066M8.63143 8.05277L0.72323 4.40284M8.63107 0.753066L9.21142 0.485213M8.63107 0.753066L9.01443 0.241916C8.9709 0.300601 8.97173 0.380752 9.01688 0.438761C9.01725 0.439235 9.01762 0.439708 9.018 0.440179M8.63107 0.753066L0.72323 4.40284M9.21142 0.485213L9.21147 0.485189L9.2119 0.484992C9.21174 0.485066 9.21158 0.48514 9.21142 0.485213ZM9.21142 0.485213C9.18978 0.495136 9.16626 0.500053 9.1435 0.500053C9.09847 0.500053 9.05197 0.480762 9.01915 0.441566C9.01888 0.441251 9.0186 0.440935 9.01834 0.440619M9.01834 0.440619C9.01822 0.440473 9.01812 0.440326 9.018 0.440179M9.01834 0.440619L9.0191 0.441554C9.01873 0.441097 9.01836 0.440639 9.018 0.440179M9.01834 0.440619L9.01685 0.438785L9.01686 0.438777C9.01724 0.439247 9.01762 0.439714 9.018 0.440179M0.72323 4.40284L0.406184 4.25651M0.72323 4.40284L0.406211 4.54915C0.462757 4.52295 0.49958 4.46559 0.49958 4.40268C0.49958 4.34008 0.463099 4.28288 0.406184 4.25651M0.406184 4.25651L0.405534 4.25621L0.338269 4.40195L0.338137 4.40224L0.337931 4.40268L0.196019 4.71016L0.338404 4.40281L0.338466 4.40268L0.338537 4.40253L0.406184 4.25651Z" fill="#C09B57" stroke="#C09B57"/>
<line x1="20.1836" y1="4.65167" x2="6.18359" y2="4.65167" stroke="#C09B57" stroke-width="1.5"/>
</svg>
