<svg width="21" height="9" viewBox="0 0 21 9" fill="none" xmlns="http://www.w3.org/2000/svg">
<path d="M0.196035 4.71019L9.00129 8.77415C9.1415 8.83782 9.3088 8.79989 9.40633 8.67933C9.50455 8.55876 9.50793 8.3874 9.41446 8.26345L6.51889 4.40268L9.41446 0.541916C9.50793 0.417965 9.50455 0.245923 9.40701 0.126037C9.34131 0.0440798 9.2431 5.34058e-05 9.14353 5.34058e-05C9.09544 5.34058e-05 9.04735 0.0102129 9.00197 0.0312099L0.196712 4.09517C0.076148 4.15072 -0.000389099 4.2706 -0.000389099 4.40268C-0.000389099 4.53476 0.076149 4.65465 0.196035 4.71019Z" fill="white"/>
<line x1="20.1836" y1="4.65186" x2="6.18359" y2="4.65186" stroke="white" stroke-width="1.5"/>
</svg>
