<svg width="20" height="9" viewBox="0 0 20 9" fill="none" xmlns="http://www.w3.org/2000/svg">
<g opacity="0.5">
<path d="M0.194624 4.71019L8.91962 8.77415C9.05855 8.83782 9.22432 8.79989 9.32097 8.67933C9.41829 8.55876 9.42164 8.3874 9.32902 8.26345L6.45984 4.40268L9.32902 0.541916C9.42164 0.417965 9.41829 0.245923 9.32164 0.126037C9.25654 0.0440798 9.15922 5.34058e-05 9.06056 5.34058e-05C9.01291 5.34058e-05 8.96526 0.0102129 8.92029 0.0312099L0.195295 4.09517C0.0758295 4.15072 -1.04904e-05 4.2706 -1.04904e-05 4.40268C-1.04904e-05 4.53476 0.0758305 4.65465 0.194624 4.71019Z" fill="#C09B57"/>
<line x1="20" y1="4.65186" x2="6.12761" y2="4.65186" stroke="#C09B57" stroke-width="1.5"/>
</g>
</svg>
