<svg width="13" height="22" viewBox="0 0 13 22" fill="none" xmlns="http://www.w3.org/2000/svg">
<path fill-rule="evenodd" clip-rule="evenodd" d="M11.943 0.723878C12.193 0.973915 12.3334 1.31299 12.3334 1.66654C12.3334 2.0201 12.193 2.35917 11.943 2.60921L3.55237 10.9999L11.943 19.3905C12.1859 19.642 12.3203 19.9788 12.3173 20.3284C12.3142 20.678 12.174 21.0124 11.9268 21.2596C11.6796 21.5068 11.3452 21.6471 10.9956 21.6501C10.646 21.6531 10.3092 21.5188 10.0577 21.2759L0.724366 11.9425C0.474405 11.6925 0.333984 11.3534 0.333984 10.9999C0.333984 10.6463 0.474405 10.3072 0.724366 10.0572L10.0577 0.723878C10.3077 0.473917 10.6468 0.333496 11.0004 0.333496C11.3539 0.333496 11.693 0.473917 11.943 0.723878Z" fill="white"/>
</svg>
