<svg width="13" height="22" viewBox="0 0 13 22" fill="none" xmlns="http://www.w3.org/2000/svg">
<path fill-rule="evenodd" clip-rule="evenodd" d="M1.05737 0.723878C1.30741 0.473917 1.64649 0.333496 2.00004 0.333496C2.35359 0.333496 2.69267 0.473917 2.94271 0.723878L12.276 10.0572C12.526 10.3072 12.6664 10.6463 12.6664 10.9999C12.6664 11.3534 12.526 11.6925 12.276 11.9425L2.94271 21.2759C2.69124 21.5188 2.35444 21.6531 2.00484 21.6501C1.65524 21.6471 1.32083 21.5068 1.07362 21.2596C0.826405 21.0124 0.68618 20.678 0.683142 20.3284C0.680104 19.9788 0.814497 19.642 1.05737 19.3905L9.44804 10.9999L1.05737 2.60921C0.807413 2.35917 0.666992 2.0201 0.666992 1.66654C0.666992 1.31299 0.807413 0.973915 1.05737 0.723878Z" fill="white"/>
</svg>
