<svg width="14" height="7" viewBox="0 0 14 7" fill="none" xmlns="http://www.w3.org/2000/svg">
<path d="M7.48095 0.838275L7.54961 0.929822L7.65013 0.712028L7.65044 0.711356L7.65058 0.711052L7.65107 0.709985L7.73918 0.519084M7.48095 0.838275L7.87369 0.894139L7.87476 0.892824M7.48095 0.838275C7.42253 0.760806 7.42465 0.653703 7.48603 0.57835M7.48095 0.838275L7.48603 0.57835M7.73918 0.519084L7.65323 0.708358L7.65275 0.709429L7.65149 0.712202L7.65118 0.71288L7.55151 0.932357L7.59861 0.995155C7.69839 1.01364 7.80464 0.978501 7.87369 0.894137C7.87404 0.893701 7.8744 0.893263 7.87476 0.892824M7.73918 0.519084C7.65155 0.479291 7.54699 0.502998 7.48603 0.57835M7.73918 0.519084L7.84156 0.566337L7.84278 0.5669L7.91661 0.600976C7.95642 0.697264 7.94172 0.809628 7.87476 0.892824M7.87476 0.892824L7.48603 0.57835M8.56589 5.05099L7.61 5.49216L9.29069 3.25125L7.60978 1.01005L8.56566 1.45122M8.56589 5.05099L7.93422 5.89321L13.242 3.44345C13.3174 3.40873 13.3652 3.3338 13.3652 3.25125C13.3652 3.1687 13.3174 3.09378 13.2425 3.05906M8.56589 5.05099L12.4655 3.25116M8.56589 5.05099L9.69069 3.55125L9.91569 3.25125L9.69069 2.95125L8.56566 1.45122M13.2425 3.05906L7.93399 0.608997L8.56566 1.45122M13.2425 3.05906L13.1538 3.25125L13.1536 3.25153L13.1536 3.25171L13.0329 3.51304L13.0323 3.51274M13.2425 3.05906L13.1535 3.25117L13.1534 3.25125L13.1534 3.25135L13.0323 3.51274M8.56566 1.45122L12.4655 3.25116M12.4655 3.25116L13.0324 2.98951M12.4655 3.25116L13.0323 3.51274M13.0324 2.98951C12.9307 3.03655 12.8652 3.13885 12.8652 3.25125C12.8652 3.36338 12.9304 3.46555 13.0323 3.51274M13.0324 2.98951L13.0325 2.98947L13.0324 2.98951ZM7.73876 5.98342L7.8414 5.93605L7.84262 5.93549L7.91671 5.90129C7.95593 5.80617 7.94208 5.69507 7.87572 5.61142C7.87535 5.61096 7.87498 5.61049 7.87461 5.61003C7.87423 5.60956 7.87384 5.60909 7.87346 5.60862C7.81596 5.53866 7.73261 5.5029 7.65028 5.5029C7.63304 5.5029 7.61566 5.50446 7.59843 5.5076L7.54935 5.57304L7.54906 5.57343L7.48095 5.66423C7.42253 5.7417 7.42465 5.84923 7.48561 5.92416C7.52667 5.97538 7.58805 6.0029 7.65028 6.0029C7.68034 6.0029 7.7104 5.99655 7.73876 5.98342Z" fill="white" stroke="white"/>
<line x1="0.750244" y1="2.81458" x2="9.50024" y2="2.81457" stroke="white" stroke-width="1.5"/>
</svg>
