<svg width="21" height="9" viewBox="0 0 21 9" fill="none" xmlns="http://www.w3.org/2000/svg">
<path d="M11.1833 0.0305349L19.9885 4.0945C20.1084 4.15004 20.185 4.26993 20.185 4.40201C20.185 4.53408 20.1084 4.65397 19.9879 4.70951L11.1826 8.77348C11.1372 8.79447 11.0891 8.80463 11.041 8.80463C10.9415 8.80463 10.8433 8.76061 10.7776 8.67865C10.68 8.55876 10.6766 8.38672 10.7701 8.26277L13.6657 4.40201L10.7701 0.54124C10.6766 0.417289 10.68 0.245925 10.7782 0.125361C10.8758 0.00479652 11.0431 -0.0331338 11.1833 0.0305349ZM11.1833 0.0305349L11.0423 0.335977L11.0415 0.337683L11.0413 0.33817L11.0408 0.339244L10.9737 0.484515L10.9765 0.485793M11.1833 0.0305349L11.0458 0.333373L11.045 0.335087L11.043 0.339523L11.0425 0.340609L10.9765 0.485793M10.9765 0.485793C11.04 0.514601 11.1178 0.49935 11.1659 0.441145C11.1661 0.440932 11.1662 0.440718 11.1664 0.440504L11.167 0.439834C11.2123 0.382907 11.2145 0.301094 11.1701 0.241242C11.1698 0.240892 11.1696 0.240542 11.1693 0.240194L11.1701 0.241239L11.1701 0.24124L11.5531 0.751914M10.9765 0.485793L11.5531 0.751914M11.5531 0.751914L14.0657 4.10201L14.2907 4.40201L14.0657 4.70201L11.5535 8.05162M11.5531 0.751914L19.4613 4.40185M11.5535 8.05162L10.9731 8.31947M11.5535 8.05162L11.1701 8.56277C11.2136 8.50409 11.2128 8.42394 11.1677 8.36593C11.1673 8.36545 11.1669 8.36498 11.1665 8.36451M11.5535 8.05162L19.4613 4.40185M10.9731 8.31947L10.9731 8.3195L10.9726 8.3197C10.9728 8.31962 10.973 8.31955 10.9731 8.31947ZM10.9731 8.31947C10.9948 8.30955 11.0183 8.30463 11.041 8.30463C11.0861 8.30463 11.1326 8.32393 11.1654 8.36312C11.1657 8.36344 11.1659 8.36375 11.1662 8.36407M11.1662 8.36407C11.1663 8.36421 11.1664 8.36436 11.1665 8.36451M11.1662 8.36407L11.1654 8.36313C11.1658 8.36359 11.1662 8.36405 11.1665 8.36451M11.1662 8.36407L11.1677 8.3659L11.1677 8.36591C11.1673 8.36544 11.1669 8.36497 11.1665 8.36451M19.4613 4.40185L19.7784 4.54818M19.4613 4.40185L19.7783 4.25553C19.7218 4.28174 19.685 4.3391 19.685 4.40201C19.685 4.46461 19.7214 4.52181 19.7784 4.54818M19.7784 4.54818L19.779 4.54848L19.8463 4.40274L19.8464 4.40245L19.8466 4.40201L19.9885 4.09453L19.8461 4.40187L19.8461 4.40201L19.846 4.40216L19.7784 4.54818Z" fill="white" stroke="white"/>
<line x1="0.000976497" y1="4.15283" x2="14.001" y2="4.15283" stroke="white" stroke-width="1.5"/>
</svg>
